<svg xmlns="http://www.w3.org/2000/svg" xmlns:ev="http://www.w3.org/2001/xml-events" xmlns:xlink="http://www.w3.org/1999/xlink" width="479.582" height="198.556" class="st6" color-interpolation-filters="sRGB" viewBox="0 0 359.687 148.917" xml:space="preserve"><style type="text/css">.st1{fill:#d8d8d8;stroke:#000;stroke-linecap:round;stroke-linejoin:round;stroke-width:.75}.st2{fill:#000;font-family:Calibri;font-size:.833336em}.st3{fill:#92cddc;stroke-linecap:round;stroke-linejoin:round;stroke-width:.75}.st3,.st4,.st5{stroke:#000}.st4{marker-end:url(#mrkr12-19);stroke-linecap:round;stroke-linejoin:round;stroke-width:.75}.st5{fill:#000;fill-opacity:1;stroke-opacity:1;stroke-width:.22935779816514}.st6{fill:none;fill-rule:evenodd;font-size:12px;overflow:visible;stroke-linecap:square;stroke-miterlimit:3}</style><defs id="Markers"><g id="lend12"><path d="M 3 1 L 0 0 L 3 -1" style="stroke-linecap:round;stroke-linejoin:round;fill:none"/></g><marker id="mrkr12-19" class="st5" markerUnits="strokeWidth" orient="auto" overflow="visible"><use transform="scale(-4.36,-4.36)" xlink:href="#lend12"/></marker></defs><g><title>Oldal-1</title><g id="shape9-1" transform="translate(60.1416,-120.583)"><title>Csomag (összecsukva)</title><desc>ToDoService</desc><rect width="108.39" height="27.959" x="0" y="120.958" class="st1"/><text x="28.87" y="137.94" class="st2">ToDoService</text></g><g id="shape10-4" transform="translate(62.8429,-69.6637)"><title>Csomag (összecsukva).10</title><desc>NotificationService</desc><rect width="103.325" height="27.959" x="0" y="120.958" class="st3"/><text x="13.17" y="137.94" class="st2">NotificationService</text></g><g id="shape11-7" transform="translate(123.285,-0.375)"><title>Csomag (összecsukva).11</title><desc>EMailSender</desc><rect width="103.325" height="27.959" x="0" y="120.958" class="st3"/><text x="25.99" y="137.94" class="st2">EMailSender</text></g><g id="shape12-10" transform="translate(255.987,-0.375)"><title>Csomag (összecsukva).12</title><desc>Logger</desc><rect width="103.325" height="27.959" x="0" y="120.958" class="st3"/><text x="37.99" y="137.94" class="st2">Logger</text></g><g id="group13-13" transform="translate(114.505,-69.6637)"><title>Irányított társítás</title><g id="shape13-14"><path d="M0 148.92 L0 166.92 L-62.47 166.92 L-62.47 190.25" class="st4"/></g></g><g id="shape20-20" transform="translate(0.375,-0.375)"><title>Csomag (összecsukva).20</title><desc>ContactRepository</desc><rect width="103.325" height="27.959" x="0" y="120.958" class="st3"/><text x="13.99" y="137.94" class="st2">ContactRepository</text></g><g id="group21-23" transform="translate(226.61,-7.26768)"><title>Irányított társítás.21</title><g id="shape21-24"><path d="M0 141.83 L29.38 141.83" class="st4"/></g></g><g id="group31-29" transform="translate(166.168,-83.643)"><title>Irányított társítás.31</title><g id="shape31-30"><path d="M0 148.92 L141.48 148.92 L141.48 204.23" class="st4"/></g></g><g id="group36-35" transform="translate(114.505,-69.6637)"><title>Irányított társítás.36</title><g id="shape36-36"><path d="M0 148.92 L0 166.92 L60.44 166.92 L60.44 190.25" class="st4"/></g></g><g id="group41-41" transform="translate(107.334,-120.583)"><title>Irányított társítás.41</title><g id="shape41-42"><path d="M7 148.92 L7.17 171.88" class="st4"/></g></g></g></svg>