<svg xmlns="http://www.w3.org/2000/svg" xmlns:ev="http://www.w3.org/2001/xml-events" xmlns:xlink="http://www.w3.org/1999/xlink" width="629.068" height="262.769" class="st8" color-interpolation-filters="sRGB" viewBox="0 0 471.801 197.077" xml:space="preserve"><style type="text/css">.st1{fill:#92cddc;stroke:#000;stroke-linecap:round;stroke-linejoin:round;stroke-width:.75}.st2{fill:#000;font-family:Calibri;font-size:.833336em}.st3{marker-end:url(#mrkr12-19);stroke-linecap:round;stroke-linejoin:round;stroke-width:.75}.st3,.st4,.st5{stroke:#000}.st4{fill:#000;fill-opacity:1;stroke-opacity:1;stroke-width:.22935779816514}.st5{fill:#d8d8d8;stroke-linecap:round;stroke-linejoin:round;stroke-width:.75}.st6{font-size:1em}.st7{fill:#000;font-family:Consolas;font-size:.791656em}.st8{fill:none;fill-rule:evenodd;font-size:12px;overflow:visible;stroke-linecap:square;stroke-miterlimit:3}</style><defs id="Markers"><g id="lend12"><path d="M 3 1 L 0 0 L 3 -1" style="stroke-linecap:round;stroke-linejoin:round;fill:none"/></g><marker id="mrkr12-19" class="st4" markerUnits="strokeWidth" orient="auto" overflow="visible"><use transform="scale(-4.36,-4.36)" xlink:href="#lend12"/></marker></defs><g><title>Oldal-1</title><g id="shape9-1" transform="translate(182.316,-119.203)"><title>Csomag (összecsukva)</title><desc>TodoController</desc><rect width="108.39" height="27.959" x="0" y="169.118" class="st1"/><text x="23.35" y="186.1" class="st2">TodoController</text></g><g id="shape10-4" transform="translate(185.017,-69.6637)"><title>Csomag (összecsukva).10</title><desc>NotificationService</desc><rect width="103.325" height="27.959" x="0" y="169.118" class="st1"/><text x="13.17" y="186.1" class="st2">NotificationService</text></g><g id="shape11-7" transform="translate(245.459,-0.375)"><title>Csomag (összecsukva).11</title><desc>EMailSender</desc><rect width="103.325" height="27.959" x="0" y="169.118" class="st1"/><text x="25.99" y="186.1" class="st2">EMailSender</text></g><g id="shape12-10" transform="translate(368.101,-0.375)"><title>Csomag (összecsukva).12</title><desc>Logger</desc><rect width="103.325" height="27.959" x="0" y="169.118" class="st1"/><text x="37.99" y="186.1" class="st2">Logger</text></g><g id="group13-13" transform="translate(236.68,-69.6637)"><title>Irányított társítás</title><g id="shape13-14"><path d="M0 197.08 L0 215.08 L-62.47 215.08 L-62.47 238.41" class="st3"/></g></g><g id="shape20-20" transform="translate(122.549,-0.375)"><title>Csomag (összecsukva).20</title><desc>ContactRepository</desc><rect width="103.325" height="27.959" x="0" y="169.118" class="st1"/><text x="13.99" y="186.1" class="st2">ContactRepository</text></g><g id="group21-23" transform="translate(348.784,-7.26768)"><title>Irányított társítás.21</title><g id="shape21-24"><path d="M0 189.99 L19.32 189.99" class="st3"/></g></g><g id="group31-29" transform="translate(288.343,-83.643)"><title>Irányított társítás.31</title><g id="shape31-30"><path d="M0 197.08 L131.42 197.08 L131.42 252.39" class="st3"/></g></g><g id="group36-35" transform="translate(236.68,-69.6637)"><title>Irányított társítás.36</title><g id="shape36-36"><path d="M0 197.08 L0 215.08 L60.44 215.08 L60.44 238.41" class="st3"/></g></g><g id="group41-41" transform="translate(229.509,-119.203)"><title>Irányított társítás.41</title><g id="shape41-42"><path d="M7 197.08 L7.17 218.66" class="st3"/></g></g><g id="shape46-47" transform="translate(182.316,-168.743)"><title>Csomag (összecsukva).46</title><desc>ASP.NET Core middleware</desc><rect width="108.39" height="27.959" x="0" y="169.118" class="st5"/><text x="26.39" y="180.1" class="st2">ASP.NET Core <tspan x="29.96" class="st6" dy="1.2em">middleware</tspan></text></g><g id="group47-51" transform="translate(229.424,-168.743)"><title>Irányított társítás.47</title><g id="shape47-52"><path d="M7.09 197.08 L7.09 218.66" class="st3"/></g></g><g id="shape52-57" transform="translate(0.375,-0.375)"><title>Csomag (összecsukva).52</title><desc>TodoContext</desc><rect width="103.325" height="27.959" x="0" y="169.118" class="st1"/><text x="22.94" y="186.1" class="st7">TodoContext</text></g><g id="group54-60" transform="translate(182.316,-133.183)"><title>Irányított társítás.54</title><g id="shape54-61"><path d="M0 197.08 L-130.28 197.08 L-130.28 301.93" class="st3"/></g></g><g id="group59-66" transform="translate(122.549,-7.26768)"><title>Irányított társítás.59</title><g id="shape59-67"><path d="M0 189.99 L-18.85 189.99" class="st3"/></g></g></g></svg>