<svg xmlns="http://www.w3.org/2000/svg" xmlns:ev="http://www.w3.org/2001/xml-events" xmlns:xlink="http://www.w3.org/1999/xlink" width="466.168" height="179.188" class="st5" color-interpolation-filters="sRGB" viewBox="0 0 349.626 134.391" xml:space="preserve"><style type="text/css">.st1{fill:#92cddc;stroke:#000;stroke-linecap:round;stroke-linejoin:round;stroke-width:.75}.st2{fill:#000;font-family:Calibri;font-size:.833336em}.st3,.st4{stroke:#000}.st3{marker-end:url(#mrkr12-16);stroke-linecap:round;stroke-linejoin:round;stroke-width:.75}.st4{fill:#000;fill-opacity:1;stroke-opacity:1;stroke-width:.22935779816514}.st5{fill:none;fill-rule:evenodd;font-size:12px;overflow:visible;stroke-linecap:square;stroke-miterlimit:3}</style><defs id="Markers"><g id="lend12"><path d="M 3 1 L 0 0 L 3 -1" style="stroke-linecap:round;stroke-linejoin:round;fill:none"/></g><marker id="mrkr12-16" class="st4" markerUnits="strokeWidth" orient="auto" overflow="visible"><use transform="scale(-4.36,-4.36)" xlink:href="#lend12"/></marker></defs><g><title>Oldal-1</title><g id="shape10-1" transform="translate(62.8429,-69.6637)"><title>Csomag (összecsukva).10</title><desc>NotificationService</desc><rect width="103.325" height="27.959" x="0" y="106.432" class="st1"/><text x="13.17" y="123.41" class="st2">NotificationService</text></g><g id="shape11-4" transform="translate(123.285,-0.375)"><title>Csomag (összecsukva).11</title><desc>EMailSender</desc><rect width="103.325" height="27.959" x="0" y="106.432" class="st1"/><text x="25.99" y="123.41" class="st2">EMailSender</text></g><g id="shape12-7" transform="translate(245.926,-0.375)"><title>Csomag (összecsukva).12</title><desc>Logger</desc><rect width="103.325" height="27.959" x="0" y="106.432" class="st1"/><text x="37.99" y="123.41" class="st2">Logger</text></g><g id="group13-10" transform="translate(114.505,-69.6637)"><title>Irányított társítás</title><g id="shape13-11"><path d="M0 134.39 L0 152.39 L-62.47 152.39 L-62.47 175.72" class="st3"/></g></g><g id="shape20-17" transform="translate(0.375,-0.375)"><title>Csomag (összecsukva).20</title><desc>ContactRepository</desc><rect width="103.325" height="27.959" x="0" y="106.432" class="st1"/><text x="13.99" y="123.41" class="st2">ContactRepository</text></g><g id="group21-20" transform="translate(226.61,-7.26768)"><title>Irányított társítás.21</title><g id="shape21-21"><path d="M0 127.3 L19.32 127.3" class="st3"/></g></g><g id="group31-26" transform="translate(166.168,-83.643)"><title>Irányított társítás.31</title><g id="shape31-27"><path d="M0 134.39 L131.42 134.39 L131.42 189.7" class="st3"/></g></g><g id="group36-32" transform="translate(114.505,-69.6637)"><title>Irányított társítás.36</title><g id="shape36-33"><path d="M0 134.39 L0 152.39 L60.44 152.39 L60.44 175.72" class="st3"/></g></g><g id="group46-38" transform="translate(107.365,-124.05)"><title>Irányított társítás.46</title><g id="shape46-39"><path d="M7.03 134.39 L7.14 160.82" class="st3"/></g></g></g></svg>